<svg width="34" height="34" viewBox="0 0 34 34" fill="none" xmlns="http://www.w3.org/2000/svg">
<circle cx="17" cy="17" r="17" fill="#FC6C4C"/>
<g clip-path="url(#clip0_17_22)">
<path d="M13.6666 20.3333L15.3333 15.3333L20.3333 13.6667L18.6666 18.6667L13.6666 20.3333Z" stroke="white" stroke-width="1.5" stroke-linecap="round" stroke-linejoin="round"/>
<path d="M9.5 17C9.5 17.9849 9.69399 18.9602 10.0709 19.8701C10.4478 20.7801 11.0003 21.6069 11.6967 22.3033C12.3931 22.9997 13.2199 23.5522 14.1299 23.9291C15.0398 24.306 16.0151 24.5 17 24.5C17.9849 24.5 18.9602 24.306 19.8701 23.9291C20.7801 23.5522 21.6069 22.9997 22.3033 22.3033C22.9997 21.6069 23.5522 20.7801 23.9291 19.8701C24.306 18.9602 24.5 17.9849 24.5 17C24.5 16.0151 24.306 15.0398 23.9291 14.1299C23.5522 13.2199 22.9997 12.3931 22.3033 11.6967C21.6069 11.0003 20.7801 10.4478 19.8701 10.0709C18.9602 9.69399 17.9849 9.5 17 9.5C16.0151 9.5 15.0398 9.69399 14.1299 10.0709C13.2199 10.4478 12.3931 11.0003 11.6967 11.6967C11.0003 12.3931 10.4478 13.2199 10.0709 14.1299C9.69399 15.0398 9.5 16.0151 9.5 17Z" stroke="white" stroke-width="1.5" stroke-linecap="round" stroke-linejoin="round"/>
</g>
<defs>
<clipPath id="clip0_17_22">
<rect width="20" height="20" fill="white" transform="translate(7 7)"/>
</clipPath>
</defs>
</svg>
