<svg width="34" height="34" viewBox="0 0 34 34" fill="none" xmlns="http://www.w3.org/2000/svg">
<circle cx="17" cy="17" r="17" fill="#FC6C4C"/>
<g clip-path="url(#clip0_17_19)">
<path d="M17 15.3333C17 14.0072 16.4732 12.7355 15.5355 11.7978C14.5979 10.8601 13.3261 10.3333 12 10.3333H9.5V12C9.5 13.3261 10.0268 14.5979 10.9645 15.5355C11.9021 16.4732 13.1739 17 14.5 17H17" stroke="white" stroke-width="1.5" stroke-linecap="round" stroke-linejoin="round"/>
<path d="M17 18.6667C17 17.3406 17.5268 16.0688 18.4645 15.1311C19.4021 14.1935 20.6739 13.6667 22 13.6667H24.5V14.5C24.5 15.8261 23.9732 17.0979 23.0355 18.0355C22.0979 18.9732 20.8261 19.5 19.5 19.5H17" stroke="white" stroke-width="1.5" stroke-linecap="round" stroke-linejoin="round"/>
<path d="M17 23.6667V15.3333" stroke="white" stroke-width="1.5" stroke-linecap="round" stroke-linejoin="round"/>
</g>
<defs>
<clipPath id="clip0_17_19">
<rect width="20" height="20" fill="white" transform="translate(7 7)"/>
</clipPath>
</defs>
</svg>
