<svg width="34" height="34" viewBox="0 0 34 34" fill="none" xmlns="http://www.w3.org/2000/svg">
<circle cx="17" cy="17" r="17" fill="#FC6C4C"/>
<g clip-path="url(#clip0_17_21)">
<path d="M10.3334 17.8333C11.8193 18.0099 13.2026 18.6813 14.2607 19.7394C15.3188 20.7975 15.9901 22.1808 16.1667 23.6667C16.9033 23.242 17.5194 22.6365 17.9569 21.9074C18.3943 21.1784 18.6386 20.3498 18.6667 19.5C20.066 19.0078 21.2878 18.1117 22.1778 16.925C23.0678 15.7384 23.586 14.3144 23.6667 12.8333C23.6667 12.1703 23.4033 11.5344 22.9345 11.0656C22.4656 10.5967 21.8297 10.3333 21.1667 10.3333C19.6856 10.4141 18.2617 10.9322 17.075 11.8222C15.8884 12.7122 14.9923 13.9341 14.5 15.3333C13.6503 15.3614 12.8217 15.6057 12.0926 16.0431C11.3635 16.4806 10.758 17.0967 10.3334 17.8333Z" stroke="white" stroke-width="1.5" stroke-linecap="round" stroke-linejoin="round"/>
<path d="M12.8333 18.6667C11.966 19.1563 11.2647 19.8938 10.8192 20.7847C10.3738 21.6755 10.2046 22.679 10.3333 23.6667C11.3209 23.7953 12.3245 23.6261 13.2153 23.1807C14.1061 22.7353 14.8436 22.034 15.3333 21.1667" stroke="white" stroke-width="1.5" stroke-linecap="round" stroke-linejoin="round"/>
<path d="M18.6666 14.5C18.6666 14.721 18.7544 14.933 18.9107 15.0893C19.067 15.2455 19.2789 15.3333 19.5 15.3333C19.721 15.3333 19.9329 15.2455 20.0892 15.0893C20.2455 14.933 20.3333 14.721 20.3333 14.5C20.3333 14.279 20.2455 14.067 20.0892 13.9107C19.9329 13.7545 19.721 13.6667 19.5 13.6667C19.2789 13.6667 19.067 13.7545 18.9107 13.9107C18.7544 14.067 18.6666 14.279 18.6666 14.5Z" stroke="white" stroke-width="1.5" stroke-linecap="round" stroke-linejoin="round"/>
</g>
<defs>
<clipPath id="clip0_17_21">
<rect width="20" height="20" fill="white" transform="translate(7 7)"/>
</clipPath>
</defs>
</svg>
